/vscmnt/brussel_pixiu_data/_data_brussel/112/vsc11236/PredSimResults/SUBJ04opt3D/expIG/worker_06.mot
version=1
nRows=9
nColumns=50
inDegrees=yes
endheader
                time	         pelvis_tilt	         pelvis_list	     pelvis_rotation	           pelvis_tx	           pelvis_ty	           pelvis_tz	       hip_flexion_r	     hip_adduction_r	      hip_rotation_r	        knee_angle_r	       ankle_angle_r	         mtp_angle_r	       hip_flexion_l	     hip_adduction_l	      hip_rotation_l	        knee_angle_l	       ankle_angle_l	         mtp_angle_l	    lumbar_extension	      lumbar_bending	     lumbar_rotation	 ercspn_r/activation	 intobl_r/activation	 extobl_r/activation	    abd_r/activation	    add_r/activation	hamstrings_r/activation	bifemsh_r/activation	glut_max_r/activation	iliopsoas_r/activation	rect_fem_r/activation	  vasti_r/activation	gastroc_r/activation	 soleus_r/activation	tib_ant_r/activation	 ercspn_l/activation	 intobl_l/activation	 extobl_l/activation	    abd_l/activation	    add_l/activation	hamstrings_l/activation	bifemsh_l/activation	glut_max_l/activation	iliopsoas_l/activation	rect_fem_l/activation	  vasti_l/activation	gastroc_l/activation	 soleus_l/activation	tib_ant_l/activation	
          1.21889368	         -2.90849097	          0.33000758	          8.73371924	          1.34078304	          0.87698425	         -0.00900854	         31.10762168	         -3.33166215	        -10.04104538	        -12.20047430	          4.88746099	          0.24313576	        -13.66231949	         -0.86374939	         -7.78415262	        -10.03090240	         10.11148460	         27.36420773	        -13.17715080	         -2.43055283	         -8.60683893	          0.05202001	          0.21121772	          0.01507889	          0.01147061	          0.31395793	          0.06741286	          0.02538371	          0.02665923	          0.16529497	          0.02971534	          0.06359705	          0.01000563	          0.01000227	          0.35051014	          0.03623858	          0.01000081	          0.01000090	          0.04125755	          0.01000828	          0.02885582	          0.17138312	          0.01741642	          0.01205182	          0.01006559	          0.01000263	          0.24388575	          0.26687915	          0.01000073	
          1.23108261	         -2.98171895	          0.28494997	          8.49258794	          1.35788955	          0.87483190	         -0.00859088	         30.82050182	         -3.10353297	        -10.16033620	        -13.38305367	          4.55092665	          0.22720736	        -14.19548019	         -1.07201978	         -8.46126373	        -11.01405095	          9.49290740	         28.97852760	        -12.67089777	         -1.83992061	         -8.71270326	          0.04323745	          0.19383670	          0.01253317	          0.01728606	          0.26094967	          0.07275604	          0.02111179	          0.09938809	          0.13738546	          0.02469844	          0.06319885	          0.01741820	          0.02096198	          0.36870632	          0.05553575	          0.01000136	          0.01001956	          0.03429139	          0.01003401	          0.02401007	          0.14244962	          0.01447593	          0.01002465	          0.01000264	          0.01000453	          0.20270694	          0.24957208	          0.01000043	
          1.24327155	         -3.03962987	          0.18024456	          8.20785416	          1.37529580	          0.87285757	         -0.00810021	         30.37544671	         -2.85171787	        -10.24374643	        -14.38238160	          4.09485928	          0.22356988	        -14.58371624	         -1.36736941	         -9.16645169	        -12.31614873	          8.78946864	         30.59797950	        -12.14076649	         -1.17010203	         -8.77483672	          0.04301413	          0.16110844	          0.01041743	          0.06319437	          0.21691875	          0.06878793	          0.01756549	          0.08261001	          0.11418842	          0.02052867	          0.12077561	          0.01447786	          0.01742289	          0.41762567	          0.05432868	          0.01000044	          0.01000141	          0.02850143	          0.01000413	          0.01996703	          0.11840000	          0.01203189	          0.02118510	          0.01000936	          0.01000125	          0.16848059	          0.22333634	          0.01000068	
          1.25546049	         -3.08343453	          0.05230433	          7.87337335	          1.39274938	          0.87126885	         -0.00749017	         29.85794943	         -2.57929116	        -10.41294892	        -15.25306384	          3.58248133	          0.19691849	        -14.74196847	         -1.72495367	         -9.90112088	        -14.05643693	          7.93861140	         32.21483977	        -11.62583901	         -0.46798977	         -8.78834458	          0.05040956	          0.13390585	          0.01000172	          0.10683546	          0.21389878	          0.06853392	          0.01460772	          0.06866515	          0.09490814	          0.01706303	          0.19533309	          0.01203482	          0.01448166	          0.44741656	          0.08457658	          0.01000072	          0.01000138	          0.02368910	          0.01000635	          0.01663807	          0.09840977	          0.01000135	          0.01761025	          0.01000584	          0.01000186	          0.14003317	          0.18562801	          0.01000056	
          1.26764942	         -3.11467412	         -0.10865736	          7.50565622	          1.41003514	          0.87027388	         -0.00676004	         29.30189238	         -2.27216890	        -10.62620805	        -16.09998161	          3.32914376	          0.16718411	        -14.58268250	         -2.17762466	        -10.64724224	        -16.34946477	          6.90354492	         33.76197572	        -11.14913362	          0.27299443	         -8.75930978	          0.04191591	          0.11129630	          0.01000373	          0.15402134	          0.18433602	          0.06471573	          0.01214834	          0.05824661	          0.07888327	          0.01418270	          0.25850864	          0.01001294	          0.01203831	          0.45294655	          0.12909272	          0.01000175	          0.01000152	          0.01968931	          0.01004359	          0.06045989	          0.08179461	          0.01000336	          0.01463828	          0.01000373	          0.01002423	          0.11638900	          0.15428537	          0.01000044	
          1.27983836	         -3.13601508	         -0.30656250	          7.12090013	          1.42692901	          0.87008222	         -0.00591093	         28.72533167	         -1.91139231	        -10.79024167	        -16.92358742	          3.35010353	          0.14132064	        -14.02840123	         -2.75186664	        -11.38887111	        -19.27458024	          5.61237913	         35.14491943	        -10.73324892	          1.05092688	         -8.69732941	          0.03571278	          0.09250430	          0.01000449	          0.17370695	          0.19093552	          0.06641970	          0.01010805	          0.04944628	          0.06556416	          0.01178923	          0.29750810	          0.01001537	          0.01003622	          0.44260189	          0.14816125	          0.01000341	          0.01000145	          0.01636488	          0.10202845	          0.07717052	          0.06798512	          0.01000158	          0.01216870	          0.01000207	          0.01000216	          0.09673709	          0.12823475	          0.01000060	
          1.29202730	         -3.14955040	         -0.51405175	          6.72508590	          1.44331503	          0.87076231	         -0.00496420	         28.09740980	         -1.51211815	        -10.86471966	        -17.64321957	          3.58093719	          0.12738400	        -13.05605377	         -3.43228543	        -12.14376004	        -22.83693235	          4.07727557	         36.06016338	        -10.39170089	          1.83159684	         -8.60601379	          0.02968745	          0.07688530	          0.01000633	          0.17865374	          0.19428503	          0.07151180	          0.01010594	          0.04110560	          0.05449394	          0.01000308	          0.31744593	          0.01000743	          0.01000343	          0.41042927	          0.14887596	          0.01001257	          0.01000143	          0.01360179	          0.19538041	          0.06430108	          0.05650770	          0.01000115	          0.01011813	          0.01000145	          0.01000091	          0.08040336	          0.10658271	          0.02042103	
          1.30421623	         -3.15648876	         -0.69351311	          6.31898693	          1.45915604	          0.87225293	         -0.00395400	         27.36973029	         -1.10673778	        -10.84963049	        -18.16245536	          3.96926770	          0.13806470	        -11.67236927	         -4.19753224	        -12.93057509	        -27.05203662	          2.54102976	         35.84409092	        -10.12996524	          2.57209878	         -8.48387155	          0.02467607	          0.06390355	          0.01000548	          0.18219344	          0.19531704	          0.07615100	          0.01003212	          0.04378952	          0.04529290	          0.01000376	          0.31798678	          0.01002380	          0.01005512	          0.37351121	          0.14419704	          0.01000582	          0.01000186	          0.01130529	          0.28400183	          0.05346413	          0.04696853	          0.01000085	          0.01001362	          0.01000148	          0.01000069	          0.06682757	          0.08858659	          0.07033756	
          1.31640517	         -3.15690902	         -0.81240882	          5.89886062	          1.47442850	          0.87440073	         -0.00292299	         26.52293940	         -0.73102791	        -10.75120551	        -18.42661755	          4.38363648	          0.20069815	         -9.91745722	         -5.02166012	        -13.73319348	        -31.84834662	          1.11219684	         34.17058226	         -9.95127674	          3.23686575	         -8.32304153	          0.02051026	          0.05311373	          0.01000471	          0.18678437	          0.16256111	          0.07819890	          0.01007844	          0.04089890	          0.03764543	          0.01000318	          0.29712946	          0.01001021	          0.01000567	          0.34043551	          0.14923105	          0.02478694	          0.01000250	          0.01000035	          0.26185364	          0.04444640	          0.03904047	          0.01000097	          0.01001535	          0.01000148	          0.01000057	          0.05554407	          0.07362910	          0.13964417	
